<?xml version="1.0" encoding="UTF-8" standalone="no"?>
<!-- Created with Inkscape (http://www.inkscape.org/) -->

<svg
   width="4.8882308in"
   height="6.8908234in"
   viewBox="0 0 124.16106 175.02691"
   version="1.1"
   id="svg1"
   inkscape:version="1.3.1 (91b66b0783, 2023-11-16)"
   xml:space="preserve"
   sodipodi:docname="android.svg"
   xmlns:inkscape="http://www.inkscape.org/namespaces/inkscape"
   xmlns:sodipodi="http://sodipodi.sourceforge.net/DTD/sodipodi-0.dtd"
   xmlns="http://www.w3.org/2000/svg"
   xmlns:svg="http://www.w3.org/2000/svg"><sodipodi:namedview
     id="namedview1"
     pagecolor="#ffffff"
     bordercolor="#000000"
     borderopacity="0.25"
     inkscape:showpageshadow="2"
     inkscape:pageopacity="0.0"
     inkscape:pagecheckerboard="0"
     inkscape:deskcolor="#d1d1d1"
     inkscape:document-units="mm"
     inkscape:zoom="1.5844823"
     inkscape:cx="252.13283"
     inkscape:cy="459.45607"
     inkscape:window-width="3840"
     inkscape:window-height="2126"
     inkscape:window-x="1909"
     inkscape:window-y="-11"
     inkscape:window-maximized="1"
     inkscape:current-layer="layer1" /><defs
     id="defs1" /><g
     inkscape:label="Layer 1"
     inkscape:groupmode="layer"
     id="layer1"
     transform="translate(-69.284196,-22.976674)"><path
       style="fill:#080808;stroke:none"
       d="m 76.706066,152.69109 10.9375,3.0703 14.062504,5.32814 c 0.60192,-1.25077 0.39063,-2.74079 0.39063,-4.10156 v -8.00781 c 0,-1.0585 -0.63206,-3.70266 0.60704,-4.20585 1.2425,-0.50459 1.34456,1.31793 1.34608,2.05741 v 8.59375 c 0,1.66569 -0.67013,5.17317 0.21053,6.61651 0.55225,0.90511 2.19746,1.37399 3.10979,1.83016 2.45227,1.22613 4.85153,2.54347 7.22656,3.91347 6.78585,3.91435 13.3747,8.67781 18.94531,14.20236 -5.04478,-3.32313 -9.82986,-6.94978 -15.03906,-10.0384 -1.99297,-1.18165 -4.33706,-3.02753 -6.64063,-3.43816 1.04888,3.08135 2.72767,5.69786 3.05839,8.98437 0.11754,1.16815 0.84335,2.67486 -0.9107,3.10888 -0.83602,0.20686 -1.63176,-0.53768 -1.6912,-1.35121 -0.0571,-0.78127 0.61204,-1.3609 0.55655,-2.14829 -0.21089,-2.99249 -2.93554,-8.24167 -4.84845,-10.50529 -1.33852,-1.58391 -4.30162,-2.30579 -6.12552,-3.21482 -5.867084,-2.92411 -12.253484,-5.3441 -18.554694,-7.15075 -1.87158,-0.5366 -3.76086,-1.02433 -5.66406,-1.43575 -0.61087,-0.13206 -1.49858,-0.53509 -2.11242,-0.28559 -1.00003,0.40644 -1.60527,2.18054 -2.10157,3.06095 -1.83437,3.25403 -3.05218,6.81053 -4.18445,10.35156 l 13.67187,5.16086 9.57032,3.43289 c 0,-1.5681 -0.65515,-3.84693 -0.39214,-5.27269 0.13094,-0.70977 0.7958,-1.42429 1.56341,-1.35874 0.80638,0.0689 1.50372,0.95478 1.39477,1.74862 -0.19978,1.45547 -1.74524,5.09039 0.17978,6.03419 4.24327,2.08038 9.016554,3.45524 13.465114,5.03849 7.22581,2.57168 14.4259,5.20573 21.67969,7.69269 5.33827,1.83023 10.62974,3.76541 16.01562,5.45819 2.25957,0.71019 4.47976,1.79695 6.83594,2.14362 -0.34218,-4.33543 -1.77154,-8.65423 -3.76142,-12.5 -0.83647,-1.6166 -2.47179,-3.13553 -2.97491,-4.88281 -0.73763,-2.56176 -0.18907,-6.59375 0.29102,-9.17969 l -3.125,-1.36718 0.97656,-4.29688 2.92969,0.78125 1.43229,-4.6875 0.30186,-1.88892 -2.5154,-1.6267 1.5625,-3.71094 2.73437,0.97656 c 0.44684,-1.31222 1.45352,-4.61056 2.77597,-5.2347 1.3149,-0.6206 4.6198,0.7914 6.0131,1.09216 5.00617,1.08058 11.17636,3.54671 16.21093,1.51501 1.12989,-0.45596 2.22838,-1.0503 3.12425,-1.88289 3.59587,-3.34185 3.12102,-6.9401 2.39272,-11.30989 -0.20183,-1.211 -0.80194,-2.88692 -0.56513,-4.10156 0.27793,-1.42559 1.89806,-2.31074 2.33004,-3.71094 0.43377,-1.40598 -0.75287,-2.8791 -0.546,-4.29688 0.21529,-1.47559 2.07271,-2.15846 2.51358,-3.51562 0.59334,-1.82653 -0.59841,-5.75731 -1.04633,-7.61719 2.34887,-1.11611 4.501,-3.00565 6.64062,-4.48737 0.70398,-0.48751 2.12002,-1.12925 2.40298,-1.99397 0.47849,-1.4623 -1.37003,-4.42351 -1.85005,-5.82335 -1.57095,-4.581223 -3.3651,-9.084696 -4.91476,-13.67187 -0.48939,-1.448655 -1.9102,-3.741872 -1.72496,-5.273437 0.27312,-2.258229 3.21989,-3.674614 3.64162,-5.859375 0.42039,-2.177846 -0.65832,-5.433726 -1.02223,-7.617188 -1.1527,-6.916141 -2.717,-13.642382 -5.95808,-19.921875 -2.26667,-4.391574 -5.26488,-8.594465 -8.73933,-12.109375 -25.67145,-25.970351 -73.299204,-21.126472 -93.343254,9.375 -9.79344,14.90289 -11.94925,34.771646 -5.52104,51.36719 1.3497,3.4845 3.12307,6.91395 5.29272,9.96093 1.14711,1.61096 3.62576,3.74454 4.05998,5.66407 0.43172,1.90851 0.0592,4.29387 0.0592,6.25 v 13.28125 c 0,2.30606 0.67086,5.8407 -0.1177,8.00781 -0.38825,1.06698 -1.52477,2.04605 -2.22545,2.92969 -1.5279,1.92685 -3.09868,3.90141 -4.29748,6.05468 M 184.32326,78.667658 c -6.04224,-0.763619 -11.87943,-1.982939 -17.96875,-2.572215 -2.10507,-0.203704 -4.95893,-1.059675 -7.03125,-0.632202 -3.47583,0.716996 -7.27818,3.8908 -10.35156,5.631053 -1.08332,0.613415 -2.26615,1.633418 -3.51563,1.828492 -1.9094,0.298107 -3.44899,-0.07124 -4.88281,-1.358748 -0.77764,-0.69828 -1.923,-2.321612 -3.04212,-2.432358 -1.40242,-0.138783 -3.65525,1.919925 -4.96569,2.465665 -1.91103,-3.27419 -3.80184,-6.417667 -6.44532,-9.179687 v -0.195313 c 1.4527,-1.452684 2.85187,-3.19252 4.49219,-4.430246 1.0191,-0.768971 2.24004,-0.708389 2.89472,-2.015221 0.97673,-1.949668 -1.46514,-4.075181 -3.27676,-2.927721 -1.43169,0.906826 -0.73722,2.043534 -1.12048,3.318501 -0.41493,1.380336 -2.54812,2.910697 -3.57636,3.902483 -0.36553,0.352573 -0.80716,0.848675 -1.36643,0.808072 -1.27528,-0.09258 -2.94237,-1.911843 -4.10156,-2.511632 -2.35665,-1.21938 -4.81376,-2.172399 -7.42188,-2.697146 -1.06339,-0.213957 -3.33811,-0.01093 -4.17902,-0.679076 -0.64392,-0.511622 -0.58616,-3.402722 0.30171,-3.640556 1.6147,-0.432551 4.25295,0.503313 5.83044,0.911605 l 0.19531,-1.367188 c -4.87414,-0.42504 -9.09751,-1.508271 -14.0625,-0.585937 v -5.273438 c -3.729794,0.160122 -7.759684,1.445473 -11.132814,2.989972 -1.80702,0.827396 -3.58625,2.07839 -5.46875,2.674091 -1.43503,-2.616727 5.11138,-4.73758 7.03125,-5.507779 6.64536,-2.665949 14.232024,-3.75557 21.289064,-2.26357 2.01884,0.426829 6.95235,3.231978 8.45088,1.109624 0.9746,-1.380313 -0.18756,-2.806687 -1.41978,-3.441024 -2.64202,-1.360094 -5.8679,-1.996076 -8.78891,-2.397251 -10.53883,-1.447392 -20.395334,1.986814 -29.492194,7.03125 0.88129,-2.095091 2.83678,-5.400527 4.53318,-6.927872 1.98585,-1.787948 5.08867,-2.724743 7.5762,-3.553903 7.882944,-2.627611 16.404284,-2.789461 24.414064,-0.67364 2.61839,0.691665 5.23651,1.721967 7.61718,3.012574 0.83984,0.455296 2.33974,1.893199 3.32017,1.75314 0.92548,-0.132215 1.74101,-1.390922 2.34676,-2.008892 1.76353,-1.799118 4.59007,-3.758656 5.6612,-6.054532 -3.14365,-1.189828 -5.91166,-3.150153 -9.17969,-4.198313 -9.41723,-3.020382 -19.04167,-2.826476 -28.515624,-0.293875 1.736214,-1.790607 4.605394,-2.828538 6.835944,-3.873539 6.91325,-3.238832 14.82963,-5.110836 22.46093,-5.110836 6.82112,0 13.36833,0.459588 19.92188,2.544642 17.80136,5.663609 30.79532,19.985306 34.45305,38.275671 0.67449,3.372741 1.67027,7.108557 1.67976,10.546875 M 128.8631,41.286414 c 1.69306,-0.632286 2.6697,2.064836 0.95938,2.657509 -1.63548,0.566745 -2.63217,-2.032792 -0.95938,-2.657509 m 28.50778,2.355194 c -2.07953,0.421107 -1.53687,3.79566 0.58233,3.485346 2.18631,-0.320148 1.5589,-3.918946 -0.58233,-3.485346 m -20.11793,3.580737 v 0.195313 c 4.10282,4.102826 8.76072,8.773172 10.15625,14.648437 1.08552,-0.395166 4.20582,-1.627635 4.60808,-2.775359 0.28963,-0.82637 -0.69044,-2.181017 -1.04424,-2.888703 -1.36411,-2.728581 -2.92067,-5.275083 -4.88295,-7.617188 -0.96378,-1.15031 -3.82755,-4.861855 -5.51683,-4.681015 -1.24322,0.133086 -2.49878,2.279687 -3.32031,3.118515 m 3.71093,-1.367187 c 1.38798,1.278448 6.89406,5.240774 3.125,6.445312 l -4.49218,-5.273437 1.36718,-1.171875 m -5.66406,2.929687 -4.10156,4.296875 v 0.195313 c 4.01205,3.695452 7.08762,7.857072 8.78906,13.085937 l 5.66406,-3.125 c -1.47073,-5.388164 -5.69883,-11.375427 -10.35156,-14.453125 m -28.71018,5.588413 c -2.2949,0.549662 -1.37257,4.144287 0.9749,3.506422 2.25741,-0.613404 1.204,-4.028297 -0.9749,-3.506422 m -0.782,6.911587 v 3.90625 c -7.601714,0.156904 -15.013234,3.889764 -19.764704,9.765625 -1.75491,2.170194 -3.18598,4.592205 -4.12356,7.226563 -0.33348,0.936997 -0.48339,3.287613 -1.25597,3.900826 -0.74798,0.593674 -2.83872,0.200736 -3.76202,0.200736 1.90238,-14.127123 14.7641,-25 28.906254,-25 m 17.20874,1.147163 c -1.47721,0.621355 -0.67395,3.205526 0.94673,2.610493 1.69655,-0.62288 0.71709,-3.310347 -0.94673,-2.610493 m -18.95812,5.776489 c 1.97608,-0.50807 2.70236,2.654457 0.7698,3.11234 -1.94394,0.460577 -2.63977,-2.631545 -0.7698,-3.11234 m 36.515,2.646661 0.39062,5.273437 h 1.5625 l -0.39062,-6.054687 -1.5625,0.78125 m -46.679694,0.476229 c 2.93714,-0.350869 3.36874,4.358375 0.39063,4.724419 -2.81984,0.346589 -3.16147,-4.393422 -0.39063,-4.724419 m 40.625164,0.607479 c -2.81303,0.603127 -1.75183,5.017507 0.97565,4.299593 2.55407,-0.672281 1.69138,-4.871416 -0.97565,-4.299593 m -25.78141,39.345974 c -5.47232,0 -10.849844,-0.72381 -14.909164,-4.84453 -9.20072,-9.33988 -6.21072,-26.914965 6.901354,-31.087386 2.37255,-0.754976 4.94824,-1.138424 7.42188,-0.842595 3.54135,0.423527 6.71795,1.458311 9.57031,3.702057 9.3149,7.327366 9.08149,21.922534 0,29.270354 -1.49664,1.21092 -3.29704,2.08016 -5.07813,2.78575 -0.71392,0.28284 -1.89238,0.45025 -2.2259,1.23774 -0.88427,2.08791 0.07,5.90466 0.0773,8.1772 0.003,0.79369 0.25157,2.15988 -0.23012,2.84395 -0.97953,1.39105 -1.52412,-1.05114 -1.52739,-1.67222 -0.0169,-3.19631 -1.5e-4,-6.37193 -1.5e-4,-9.57032 m -3.51562,-31.362266 c -2.6049,0.3546 -5.16991,1.222789 -7.209084,2.947772 -9.72177,8.223879 -2.50941,24.923534 10.138774,23.279854 1.85237,-0.24072 3.68188,-0.88986 5.27343,-1.85983 11.13888,-6.788538 5.17562,-26.189028 -8.20312,-24.367796 m 9.76562,6.948209 c -2.19409,1.425695 -3.24717,-1.231706 -5.27343,-2.059829 -3.74075,-1.528836 -8.36735,-0.243128 -10.546884,3.231704 -2.5908,-1.223588 0.31517,-3.527832 1.757814,-4.401469 4.07538,-2.467966 12.26579,-2.09868 14.0625,3.229594 m 65.42969,-3.90625 h 0.19531 c -0.43091,3.409612 0.99455,6.437266 2.18597,9.570312 2.0178,5.306192 4.73917,10.882315 6.01716,16.406245 -2.87738,0.74475 -5.85379,1.39589 -8.78907,1.86754 -1.04634,0.16813 -2.64116,0.70328 -3.125,-0.50035 h -0.19531 l -0.19531,0.78125 1.60138,2.73347 2.71719,2.0345 0.37707,2.45859 0.77311,4.29688 c -3.16544,0.009 -6.6724,2.31056 -9.57031,3.54485 -0.67497,0.28749 -2.97525,0.92129 -2.48903,2.05727 0.30666,0.71647 1.54669,0.33271 2.0984,0.24158 1.65933,-0.2741 4.43112,-1.44655 6.05167,-0.81576 0.81731,0.31814 2.16875,2.39315 1.2516,3.17262 -1.37851,1.1716 -3.31307,0.84051 -4.56889,2.54163 l 2.53906,0.78125 c 0.003,4.40423 2.95235,10.12206 -0.9844,13.63028 -3.20264,2.85403 -8.65932,0.67245 -12.29685,-0.11274 -8.80388,-1.90034 -17.00278,-5.62839 -25.19531,-9.24794 -3.52344,-1.55669 -8.10069,-2.99607 -10.65147,-6.03028 -2.73593,-3.25446 -2.819,-7.50844 -3.49181,-11.52057 -0.21082,-1.25716 -0.88963,-3.24685 -0.54947,-4.49219 0.26722,-0.97833 1.42201,-1.72218 1.99743,-2.53906 4.49965,1.26297 3.16846,8.11348 4.41669,11.52057 0.63499,1.73322 3.21516,3.41783 4.763,4.29974 l -2.45271,-14.64844 -3.77453,-4.49219 2.71162,-5.07812 c 1.2839,0.48665 2.41732,1.40858 3.51562,2.22093 1.57628,1.16588 3.2349,2.22183 4.13864,4.02907 1.75379,3.50711 1.53317,8.47418 2.22379,12.30469 0.20072,1.1133 0.16801,2.50121 0.70092,3.51562 0.77085,1.46731 2.47116,2.17997 3.87415,2.88146 2.84078,1.4204 5.79481,2.65763 8.59375,4.14979 -0.27105,-6.31375 -1.7481,-12.67285 -2.50877,-18.94531 -0.31025,-2.55833 -0.13508,-7.00059 -1.59174,-9.16145 -0.873,-1.29502 -2.78237,-1.98429 -4.10261,-2.72548 -2.76273,-1.55102 -5.47746,-3.2164 -8.20313,-4.832483 -1.01737,-0.60321 -2.8573,-1.318299 -3.5102,-2.329134 -0.59104,-0.915075 0.0336,-2.400863 -0.0237,-3.41239 -0.16861,-2.979875 -0.77283,-5.840206 -1.15364,-8.789063 0.87369,-0.465023 2.2822,-1.721978 3.32031,-1.563715 1.93391,0.29484 2.59691,3.356277 4.6875,3.534925 3.8046,0.325119 7.75284,-2.213932 11.52344,-1.731444 2.35814,0.301743 4.7408,2.382088 6.83594,3.422797 2.45648,1.220202 5.13571,1.578784 7.8125,2.017176 1.16857,0.191391 3.16738,0.831497 4.29612,0.422418 2.17382,-0.787842 1.43934,-4.024935 3.16961,-5.043757 1.69821,-0.999939 3.6087,-0.825119 5.03427,-2.425587 m -9.375,4.6875 c -4.1516,0 -9.15139,-0.849938 -11.71875,-4.492188 2.21522,-0.656282 4.92544,-0.586092 7.22656,-0.585937 0.91817,6e-5 1.93057,-0.09952 2.69278,0.518119 1.16102,0.940788 1.6095,3.150869 1.79941,4.560006 M 85.307646,84.070402 c 1.39551,-0.137985 1.68738,2.098191 0.18748,2.140903 -1.27361,0.03626 -1.47627,-2.013468 -0.18748,-2.140903 m 25.382794,3.191006 v 0.195312 c -1.72457,1.668418 -2.6334,0.387502 -4.6875,0.509537 -3.02822,0.17991 -6.132644,2.624213 -6.445314,5.740463 -0.48367,-1.152634 -0.11552,-2.607202 0.36636,-3.710937 1.770974,-4.056275 7.288994,-5.335212 10.766454,-2.734375 m -31.632794,3.850043 c 1.32678,-0.369323 1.83193,1.878071 0.5668,2.270651 -1.38681,0.430333 -1.99025,-1.874423 -0.5668,-2.270651 m 15.22654,25.642139 c -2.17675,-0.38802 -4.37158,-2.00437 -6.05469,-3.37125 -4.57022,-3.71153 -8.12341,-8.92313 -9.76562,-14.597493 0.86555,0 2.8652,-0.37422 3.49889,0.31316 1.52779,1.657263 2.20087,4.939543 3.47223,6.913403 1.21131,1.88063 2.64124,3.73933 4.357,5.18768 2.23638,1.88782 4.49219,2.38544 4.49219,5.5545 m 82.617184,-4.6875 0.19532,0.19532 -0.19532,-0.19532 m -76.339,2.27488 c 1.24656,-0.45953 1.76312,1.50954 0.54721,1.89271 -1.150574,0.36255 -1.564914,-1.51754 -0.54721,-1.89271 m 0.36244,4.14452 c 1.32059,0 1.11539,2.2217 -0.18476,2.08333 -1.134454,-0.12074 -0.923254,-2.08333 0.18476,-2.08333 m -13.085934,1.97904 c 2.18867,1.812 1.75781,5.17426 1.75781,7.8125 0,5.74451 -0.61637,11.8727 0.0213,17.57813 0.11378,1.01816 0.9164,1.48618 1.34066,2.34375 0.36261,0.73294 0.20059,1.7435 0.20059,2.53906 -1.18808,-0.68348 -3.09981,-1.90942 -3.45354,-3.32031 -0.46909,-1.87106 -0.0621,-4.32151 -0.0621,-6.25 v -13.08594 c 0,-2.17933 -0.64602,-5.61216 0.19532,-7.61719 m 15.234374,5.72766 c 7.6127,-1.27172 9.84966,10.33474 2.14844,11.56925 -7.317514,1.17301 -9.487844,-10.34318 -2.14844,-11.56925 m -10.742194,2.08484 1.44465,1.75781 0.11785,7.03125 -0.11785,2.52144 -1.63996,1.38481 v -8.59375 l 0.19531,-4.10156 m 11.523444,0.0888 c -4.619084,0.62906 -3.68293,7.93344 0.78125,7.26604 4.71035,-0.70419 3.94427,-7.90961 -0.78125,-7.26604 m 0.003,1.95207 c 2.05801,-0.51449 3.03745,2.78851 0.97053,3.34246 -2.16493,0.58022 -3.02452,-2.82896 -0.97053,-3.34246 m 10.54386,5.38104 c 1.45403,1.66436 4.05681,3.84736 4.60567,6.05468 0.76806,3.0889 -0.71396,6.95321 0.395,9.96094 0.36839,0.99917 1.49259,1.80576 2.2259,2.53906 2.0031,2.0031 5.369,4.49887 6.6352,7.03125 0.49832,0.99664 0.20073,2.62123 0.20073,3.71094 v 8.39844 c -5.16889,-1.64709 -1.39404,-7.60338 -2.90196,-11.32813 -1.46722,-3.62424 -6.49057,-5.31935 -8.22543,-8.78906 -1.46562,-2.93126 0.81034,-7.28968 -0.31858,-10.35156 -0.97477,-2.6438 -4.05385,-3.80123 -2.61653,-7.22656 m -5.85937,6.83593 c 0,3.52021 1.4661,10.71865 -1.95313,12.69532 0,-3.73049 -1.3764,-10.24475 1.95313,-12.69532 m -12.302434,2.09991 c 1.06553,-0.26244 1.44393,1.67208 0.3632,1.93581 -1.34683,0.32864 -1.54956,-1.64361 -0.3632,-1.93581 m 25.778994,0.82978 c 4.49641,4.40361 8.97807,7.90944 14.84375,10.35156 -0.77164,2.23654 -3.29373,0.25804 -4.6875,-0.43885 -3.26036,-1.63018 -5.83478,-3.02704 -8.37583,-5.69103 -1.25807,-1.31896 -2.73508,-2.23517 -1.78042,-4.22168 m -26.143094,4.02787 c 1.12805,-0.43852 1.82756,1.28076 0.72368,1.70989 -1.12802,0.43851 -1.82757,-1.28076 -0.72368,-1.70989 m 17.567574,0.36516 c 1.21817,-0.26511 1.50425,1.70901 0.35205,1.95613 -1.25177,0.26851 -1.50686,-1.70481 -0.35205,-1.95613 m 0.36395,4.02229 c 1.18517,0.2375 0.79783,2.16367 -0.37239,2.04053 -1.28791,-0.13552 -0.85226,-2.28593 0.37239,-2.04053 m 32.62563,6.62374 -0.58593,1.36719 -4.88282,-1.95312 -5.10585,6.05468 0.0102,5.27344 -0.17783,6.83594 c -2.29422,-1.52195 -1.75782,-3.78051 -1.75782,-6.25 0,-1.92568 -0.54506,-4.83429 0.14499,-6.64063 0.60715,-1.58934 2.76303,-3.28351 3.95733,-4.49218 0.74653,-0.75553 1.70003,-2.12584 2.73362,-2.47004 1.41796,-0.4722 4.40797,1.63211 5.66406,2.27472 m -25.57735,3.60409 c 1.64918,-0.40594 2.23852,2.16951 0.56906,2.4815 -1.51736,0.28356 -2.0974,-2.10529 -0.56906,-2.4815 m 12.88204,17.88029 0.58594,0.78125 z"
       id="path100" /></g></svg>
